<svg width="215" height="61" viewBox="0 0 215 61" fill="none" xmlns="http://www.w3.org/2000/svg">
<ellipse cx="38.2623" cy="40.1773" rx="20.731" ry="20.4546" fill="#F6CAD0" fill-opacity="0.3"/>
<path fill-rule="evenodd" clip-rule="evenodd" d="M0 7.67936C0 3.64445 3.27336 0.371094 7.30827 0.371094H39.4527C49.8978 0.371094 58.8438 7.53964 58.8438 18.4952C58.8438 19.8671 57.7316 20.9793 56.3596 20.9793C54.9877 20.9793 53.8755 19.8671 53.8755 18.4952C53.8755 10.7802 47.6784 5.33933 39.4527 5.33933H7.30827C6.01724 5.33933 4.96823 6.38833 4.96823 7.67936V38.9246C4.96823 40.2965 3.85606 41.4087 2.48412 41.4087C1.11218 41.4087 0 40.2965 0 38.9246V7.67936Z" fill="#EC616F"/>
<path fill-rule="evenodd" clip-rule="evenodd" d="M35.5527 32.5547C36.9246 32.5547 38.0368 33.6669 38.0368 35.0388V38.9339C38.0368 49.4374 29.5219 57.9523 19.0184 57.9523C8.51484 57.9523 0 49.4374 0 38.9339C0 37.562 1.11218 36.4498 2.48412 36.4498C3.85606 36.4498 4.96823 37.562 4.96823 38.9339C4.96823 46.6936 11.2587 52.9841 19.0184 52.9841C26.7781 52.9841 33.0686 46.6936 33.0686 38.9339V35.0388C33.0686 33.6669 34.1807 32.5547 35.5527 32.5547Z" fill="#EC616F"/>
<path fill-rule="evenodd" clip-rule="evenodd" d="M56.3549 16.0078C57.7268 16.0078 58.839 17.12 58.839 18.4919C58.839 28.9955 50.3242 37.5103 39.8206 37.5103H35.9255C34.5536 37.5103 33.4414 36.3981 33.4414 35.0262C33.4414 33.6543 34.5536 32.5421 35.9255 32.5421H39.8206C47.5803 32.5421 53.8708 26.2516 53.8708 18.4919C53.8708 17.12 54.983 16.0078 56.3549 16.0078Z" fill="#EC616F"/>
<path fill-rule="evenodd" clip-rule="evenodd" d="M28.258 22.9409C25.6056 22.9409 23.4487 25.0978 23.4487 27.7501C23.4487 30.4025 25.6056 32.5594 28.258 32.5594H33.0672V27.7501C33.0672 25.0978 30.9103 22.9409 28.258 22.9409ZM18.4805 27.7501C18.4805 22.3539 22.8617 17.9727 28.258 17.9727C33.6542 17.9727 38.0354 22.3539 38.0354 27.7501V35.0435C38.0354 36.4154 36.9233 37.5276 35.5513 37.5276H28.258C22.8617 37.5276 18.4805 33.1463 18.4805 27.7501Z" fill="#EC616F"/>
<path d="M72.9688 46.7184V15.1795H93.0143C94.7241 15.1795 96.1101 16.5656 96.1101 18.2754C96.1101 19.9852 94.7241 21.3712 93.0143 21.3712H80.0118V28.5303H91.2729C92.9613 28.5303 94.33 29.899 94.33 31.5875C94.33 33.2759 92.9613 34.6446 91.2729 34.6446H80.0118V46.7184H72.9688Z" fill="#EC616F"/>
<path d="M108.946 47.2601C102.444 47.2601 97.9168 42.2681 97.9168 35.3799C97.9168 28.4916 102.444 23.4996 108.946 23.4996C111.925 23.4996 114.093 24.5444 115.447 26.3632V24.0414H122.335V46.7184H115.447V44.3965C114.093 46.2153 111.925 47.2601 108.946 47.2601ZM110.029 41.378C113.396 41.378 115.563 38.8627 115.563 35.3799C115.563 31.897 113.396 29.3817 110.029 29.3817C106.74 29.3817 104.65 31.897 104.65 35.3799C104.65 38.8627 106.74 41.378 110.029 41.378Z" fill="#EC616F"/>
<path d="M127.534 46.7184V27.4855C127.534 25.5833 129.076 24.0414 130.978 24.0414H132.256C133.452 24.0414 134.423 25.0116 134.423 26.2084C135.777 24.3896 137.48 23.4996 139.995 23.4996C142.859 23.4996 145.219 24.6605 146.729 26.7502C148.431 24.5831 150.831 23.4996 154.275 23.4996C159.499 23.4996 162.982 27.292 162.982 33.5998V46.7184H156.093V34.7607C156.093 31.3166 154.778 29.4204 152.262 29.4204C150.018 29.4204 148.818 31.2005 148.702 34.4124V46.7184H141.814V34.7607C141.814 31.3166 140.498 29.4204 137.983 29.4204C135.738 29.4204 134.539 31.2005 134.423 34.4124V46.7184H127.534Z" fill="#EC616F"/>
<path d="M171.075 13.0898C173.513 13.0898 175.293 14.8699 175.293 17.3079C175.293 19.7459 173.513 21.526 171.075 21.526C168.637 21.526 166.857 19.7459 166.857 17.3079C166.857 14.8699 168.637 13.0898 171.075 13.0898ZM171.075 24.0414C172.977 24.0414 174.519 25.5833 174.519 27.4855V43.3516C174.519 45.2538 172.977 46.7957 171.075 46.7957C169.173 46.7957 167.631 45.2538 167.631 43.3516V27.4855C167.631 25.5833 169.173 24.0414 171.075 24.0414Z" fill="#EC616F"/>
<path d="M183.13 14.2121C185.032 14.2121 186.574 15.7541 186.574 17.6562V43.2742C186.574 45.1764 185.032 46.7184 183.13 46.7184C181.228 46.7184 179.686 45.1764 179.686 43.2742V17.6562C179.686 15.7541 181.228 14.2121 183.13 14.2121Z" fill="#EC616F"/>
<path d="M201.609 47.2601C195.108 47.2601 190.58 42.2681 190.58 35.3799C190.58 28.4916 195.108 23.4996 201.609 23.4996C204.589 23.4996 206.756 24.5444 208.11 26.3632V24.0414H214.999V46.7184H208.11V44.3965C206.756 46.2153 204.589 47.2601 201.609 47.2601ZM202.693 41.378C206.059 41.378 208.227 38.8627 208.227 35.3799C208.227 31.897 206.059 29.3817 202.693 29.3817C199.403 29.3817 197.314 31.897 197.314 35.3799C197.314 38.8627 199.403 41.378 202.693 41.378Z" fill="#EC616F"/>
<path d="M171.075 13.0898C173.513 13.0898 175.293 14.8699 175.293 17.3079C175.293 19.7459 173.513 21.526 171.075 21.526C168.637 21.526 166.857 19.7459 166.857 17.3079C166.857 14.8699 168.637 13.0898 171.075 13.0898ZM171.075 24.0414C172.977 24.0414 174.519 25.5833 174.519 27.4855V43.3516C174.519 45.2538 172.977 46.7957 171.075 46.7957C169.173 46.7957 167.631 45.2538 167.631 43.3516V27.4855C167.631 25.5833 169.173 24.0414 171.075 24.0414Z" fill="#F6CAD0"/>
<path d="M171.074 23.8867C173.058 23.8867 174.667 25.4955 174.667 27.4801V43.2357C174.667 45.2203 173.058 46.8291 171.074 46.8291C169.089 46.8291 167.48 45.2203 167.48 43.2357V27.4801C167.48 25.4955 169.089 23.8867 171.074 23.8867Z" fill="#EC616F"/>
<path d="M171.074 23.8867C173.058 23.8867 174.667 25.4955 174.667 27.4801V43.2357C174.667 45.2203 173.058 46.8291 171.074 46.8291C169.089 46.8291 167.48 45.2203 167.48 43.2357V27.4801C167.48 25.4955 169.089 23.8867 171.074 23.8867Z" fill="#EC616F"/>
</svg>
