<svg width="533" height="544" viewBox="0 0 533 544" fill="none" xmlns="http://www.w3.org/2000/svg">
<ellipse cx="345.685" cy="359.479" rx="186.83" ry="184.339" fill="#F6CAD0" fill-opacity="0.3"/>
<path fill-rule="evenodd" clip-rule="evenodd" d="M0.824219 66.6283C0.824219 30.2654 30.324 0.765625 66.6869 0.765625H356.375C450.507 0.765625 531.129 65.3691 531.129 164.102C531.129 176.466 521.106 186.489 508.742 186.489C496.378 186.489 486.355 176.466 486.355 164.102C486.355 94.5729 430.505 45.5397 356.375 45.5397H66.6869C55.052 45.5397 45.5983 54.9934 45.5983 66.6283V348.213C45.5983 360.577 35.5753 370.6 23.2113 370.6C10.8472 370.6 0.824219 360.577 0.824219 348.213V66.6283Z" fill="#EC616F"/>
<path fill-rule="evenodd" clip-rule="evenodd" d="M321.228 290.77C333.592 290.77 343.615 300.793 343.615 313.157V348.259C343.615 442.918 266.878 519.655 172.219 519.655C77.5606 519.655 0.824219 442.918 0.824219 348.259C0.824219 335.895 10.8472 325.872 23.2113 325.872C35.5753 325.872 45.5983 335.895 45.5983 348.259C45.5983 418.19 102.289 474.881 172.219 474.881C242.15 474.881 298.841 418.19 298.841 348.259V313.157C298.841 300.793 308.864 290.77 321.228 290.77Z" fill="#EC616F"/>
<path fill-rule="evenodd" clip-rule="evenodd" d="M508.729 141.721C521.093 141.721 531.116 151.744 531.116 164.108C531.116 258.767 454.379 335.503 359.72 335.503H324.618C312.253 335.503 302.23 325.48 302.23 313.116C302.23 300.752 312.253 290.729 324.618 290.729H359.72C429.651 290.729 486.342 234.039 486.342 164.108C486.342 151.744 496.365 141.721 508.729 141.721Z" fill="#EC616F"/>
<path fill-rule="evenodd" clip-rule="evenodd" d="M255.541 204.128C231.638 204.128 212.2 223.566 212.2 247.469C212.2 271.372 231.638 290.81 255.541 290.81H298.883V247.469C298.883 223.566 279.444 204.128 255.541 204.128ZM167.426 247.469C167.426 198.838 206.91 159.354 255.541 159.354C304.172 159.354 343.657 198.838 343.657 247.469V313.197C343.657 325.561 333.634 335.584 321.27 335.584H255.541C206.91 335.584 167.426 296.1 167.426 247.469Z" fill="#EC616F"/>
</svg>
