<svg width="20" height="20" viewBox="0 0 20 20" fill="none" xmlns="http://www.w3.org/2000/svg">
<g filter="url(#filter0_i_2295_3151)">
<circle cx="10" cy="10.2578" r="6.79688" fill="url(#paint0_linear_2295_3151)"/>
</g>
<g filter="url(#filter1_iiii_2295_3151)">
<path fill-rule="evenodd" clip-rule="evenodd" d="M10 18.9883C14.8217 18.9883 18.7305 15.0795 18.7305 10.2578C18.7305 5.43611 14.8217 1.52734 10 1.52734C5.1783 1.52734 1.26953 5.43611 1.26953 10.2578C1.26953 15.0795 5.1783 18.9883 10 18.9883ZM10 17.0547C13.7538 17.0547 16.7969 14.0116 16.7969 10.2578C16.7969 6.504 13.7538 3.46094 10 3.46094C6.24619 3.46094 3.20312 6.504 3.20312 10.2578C3.20312 14.0116 6.24619 17.0547 10 17.0547Z" fill="url(#paint1_linear_2295_3151)"/>
</g>
<g filter="url(#filter2_f_2295_3151)">
<path fill-rule="evenodd" clip-rule="evenodd" d="M6.19607 7.07404C6.08796 7.14287 6.02246 7.26219 6.02246 7.39038V7.56542C6.02246 7.72478 6.14175 7.85627 6.2959 7.87549V12.624H6.22861C6.02952 12.624 5.85553 12.7584 5.80525 12.9511L5.61185 13.6926C5.5602 13.8906 5.70958 14.084 5.9142 14.084H13.696C13.897 14.084 14.0457 13.897 14.0005 13.7012L13.8302 12.9631C13.7844 12.7646 13.6076 12.624 13.4039 12.624H13.3369V7.87412C13.4863 7.85068 13.6006 7.7214 13.6006 7.56542V7.39038C13.6006 7.26219 13.5351 7.14288 13.427 7.07404L10.0633 4.9327C9.90968 4.83493 9.71337 4.83493 9.55979 4.9327L6.19607 7.07404ZM12.3311 12.624V7.87792H11.3252V12.624H12.3311ZM10.3193 12.624V7.87792H9.31348V12.624H10.3193ZM8.30762 12.624V7.87792H7.30176V12.624H8.30762Z" fill="#DC7B3C"/>
</g>
<g filter="url(#filter3_ii_2295_3151)">
<path d="M6.21875 7.21459C6.21875 7.0864 6.28423 6.9671 6.39237 6.89825L9.75609 4.75692C9.90966 4.65915 10.106 4.65915 10.2595 4.75692L13.6233 6.89826C13.7314 6.9671 13.7969 7.0864 13.7969 7.21459V7.38964C13.7969 7.56223 13.657 7.70214 13.4844 7.70214H6.53125C6.35866 7.70214 6.21875 7.56223 6.21875 7.38964V7.21459Z" fill="#FFC546"/>
</g>
<path d="M6.21875 7.21459C6.21875 7.0864 6.28423 6.9671 6.39237 6.89825L9.75609 4.75692C9.90966 4.65915 10.106 4.65915 10.2595 4.75692L13.6233 6.89826C13.7314 6.9671 13.7969 7.0864 13.7969 7.21459V7.38964C13.7969 7.56223 13.657 7.70214 13.4844 7.70214H6.53125C6.35866 7.70214 6.21875 7.56223 6.21875 7.38964V7.21459Z" fill="url(#paint2_linear_2295_3151)"/>
<path d="M6.49219 7.66797C6.49219 7.5299 6.60412 7.41797 6.74219 7.41797H7.24805C7.38612 7.41797 7.49805 7.5299 7.49805 7.66797V12.584H6.49219V7.66797Z" fill="url(#paint3_linear_2295_3151)"/>
<path d="M6.49219 7.66797C6.49219 7.5299 6.60412 7.41797 6.74219 7.41797H7.24805C7.38612 7.41797 7.49805 7.5299 7.49805 7.66797V12.584H6.49219V7.66797Z" fill="url(#paint4_linear_2295_3151)"/>
<rect x="8.50391" y="7.41797" width="1.00586" height="5.16602" fill="url(#paint5_linear_2295_3151)"/>
<rect x="8.50391" y="7.41797" width="1.00586" height="5.16602" fill="url(#paint6_linear_2295_3151)"/>
<rect x="10.5156" y="7.41797" width="1.00586" height="5.16602" fill="url(#paint7_linear_2295_3151)"/>
<rect x="10.5156" y="7.41797" width="1.00586" height="5.16602" fill="url(#paint8_linear_2295_3151)"/>
<rect x="12.5273" y="7.41797" width="1.00586" height="5.16602" fill="url(#paint9_linear_2295_3151)"/>
<rect x="12.5273" y="7.41797" width="1.00586" height="5.16602" fill="url(#paint10_linear_2295_3151)"/>
<g filter="url(#filter4_ii_2295_3151)">
<path d="M6.0006 12.7724C6.05085 12.5797 6.22484 12.4453 6.42393 12.4453H13.5992C13.8029 12.4453 13.9797 12.5859 14.0255 12.7844L14.1958 13.5225C14.241 13.7183 14.0923 13.9053 13.8913 13.9053H6.10954C5.90492 13.9053 5.75551 13.7119 5.80716 13.5139L6.0006 12.7724Z" fill="#FFC248"/>
</g>
<defs>
<filter id="filter0_i_2295_3151" x="2.95312" y="3.46094" width="13.8438" height="13.8438" filterUnits="userSpaceOnUse" color-interpolation-filters="sRGB">
<feFlood flood-opacity="0" result="BackgroundImageFix"/>
<feBlend mode="normal" in="SourceGraphic" in2="BackgroundImageFix" result="shape"/>
<feColorMatrix in="SourceAlpha" type="matrix" values="0 0 0 0 0 0 0 0 0 0 0 0 0 0 0 0 0 0 127 0" result="hardAlpha"/>
<feOffset dx="-0.25" dy="0.25"/>
<feGaussianBlur stdDeviation="0.5"/>
<feComposite in2="hardAlpha" operator="arithmetic" k2="-1" k3="1"/>
<feColorMatrix type="matrix" values="0 0 0 0 0.831373 0 0 0 0 0.45098 0 0 0 0 0.196078 0 0 0 1 0"/>
<feBlend mode="normal" in2="shape" result="effect1_innerShadow_2295_3151"/>
</filter>
<filter id="filter1_iiii_2295_3151" x="0.969531" y="1.22734" width="18.0609" height="18.0609" filterUnits="userSpaceOnUse" color-interpolation-filters="sRGB">
<feFlood flood-opacity="0" result="BackgroundImageFix"/>
<feBlend mode="normal" in="SourceGraphic" in2="BackgroundImageFix" result="shape"/>
<feColorMatrix in="SourceAlpha" type="matrix" values="0 0 0 0 0 0 0 0 0 0 0 0 0 0 0 0 0 0 127 0" result="hardAlpha"/>
<feOffset dx="0.3" dy="0.3"/>
<feGaussianBlur stdDeviation="0.3"/>
<feComposite in2="hardAlpha" operator="arithmetic" k2="-1" k3="1"/>
<feColorMatrix type="matrix" values="0 0 0 0 0.886275 0 0 0 0 0.662745 0 0 0 0 0.235294 0 0 0 1 0"/>
<feBlend mode="normal" in2="shape" result="effect1_innerShadow_2295_3151"/>
<feColorMatrix in="SourceAlpha" type="matrix" values="0 0 0 0 0 0 0 0 0 0 0 0 0 0 0 0 0 0 127 0" result="hardAlpha"/>
<feOffset dx="0.3" dy="-0.3"/>
<feGaussianBlur stdDeviation="0.3"/>
<feComposite in2="hardAlpha" operator="arithmetic" k2="-1" k3="1"/>
<feColorMatrix type="matrix" values="0 0 0 0 0.956863 0 0 0 0 0.607843 0 0 0 0 0.294118 0 0 0 1 0"/>
<feBlend mode="normal" in2="effect1_innerShadow_2295_3151" result="effect2_innerShadow_2295_3151"/>
<feColorMatrix in="SourceAlpha" type="matrix" values="0 0 0 0 0 0 0 0 0 0 0 0 0 0 0 0 0 0 127 0" result="hardAlpha"/>
<feOffset dy="-0.3"/>
<feGaussianBlur stdDeviation="0.3"/>
<feComposite in2="hardAlpha" operator="arithmetic" k2="-1" k3="1"/>
<feColorMatrix type="matrix" values="0 0 0 0 0.956863 0 0 0 0 0.607843 0 0 0 0 0.294118 0 0 0 1 0"/>
<feBlend mode="normal" in2="effect2_innerShadow_2295_3151" result="effect3_innerShadow_2295_3151"/>
<feColorMatrix in="SourceAlpha" type="matrix" values="0 0 0 0 0 0 0 0 0 0 0 0 0 0 0 0 0 0 127 0" result="hardAlpha"/>
<feOffset dx="-0.3" dy="0.3"/>
<feGaussianBlur stdDeviation="0.3"/>
<feComposite in2="hardAlpha" operator="arithmetic" k2="-1" k3="1"/>
<feColorMatrix type="matrix" values="0 0 0 0 1 0 0 0 0 0.882353 0 0 0 0 0.337255 0 0 0 1 0"/>
<feBlend mode="normal" in2="effect3_innerShadow_2295_3151" result="effect4_innerShadow_2295_3151"/>
</filter>
<filter id="filter2_f_2295_3151" x="5.00156" y="4.25937" width="9.60625" height="10.4227" filterUnits="userSpaceOnUse" color-interpolation-filters="sRGB">
<feFlood flood-opacity="0" result="BackgroundImageFix"/>
<feBlend mode="normal" in="SourceGraphic" in2="BackgroundImageFix" result="shape"/>
<feGaussianBlur stdDeviation="0.3" result="effect1_foregroundBlur_2295_3151"/>
</filter>
<filter id="filter3_ii_2295_3151" x="6.21875" y="4.43359" width="7.72813" height="3.51953" filterUnits="userSpaceOnUse" color-interpolation-filters="sRGB">
<feFlood flood-opacity="0" result="BackgroundImageFix"/>
<feBlend mode="normal" in="SourceGraphic" in2="BackgroundImageFix" result="shape"/>
<feColorMatrix in="SourceAlpha" type="matrix" values="0 0 0 0 0 0 0 0 0 0 0 0 0 0 0 0 0 0 127 0" result="hardAlpha"/>
<feOffset dy="-0.25"/>
<feGaussianBlur stdDeviation="0.25"/>
<feComposite in2="hardAlpha" operator="arithmetic" k2="-1" k3="1"/>
<feColorMatrix type="matrix" values="0 0 0 0 0.980392 0 0 0 0 0.647059 0 0 0 0 0.172549 0 0 0 1 0"/>
<feBlend mode="normal" in2="shape" result="effect1_innerShadow_2295_3151"/>
<feColorMatrix in="SourceAlpha" type="matrix" values="0 0 0 0 0 0 0 0 0 0 0 0 0 0 0 0 0 0 127 0" result="hardAlpha"/>
<feOffset dx="0.15" dy="0.25"/>
<feGaussianBlur stdDeviation="0.25"/>
<feComposite in2="hardAlpha" operator="arithmetic" k2="-1" k3="1"/>
<feColorMatrix type="matrix" values="0 0 0 0 0.980392 0 0 0 0 0.647059 0 0 0 0 0.172549 0 0 0 1 0"/>
<feBlend mode="normal" in2="effect1_innerShadow_2295_3151" result="effect2_innerShadow_2295_3151"/>
</filter>
<filter id="filter4_ii_2295_3151" x="5.54688" y="12.1953" width="8.90625" height="1.96094" filterUnits="userSpaceOnUse" color-interpolation-filters="sRGB">
<feFlood flood-opacity="0" result="BackgroundImageFix"/>
<feBlend mode="normal" in="SourceGraphic" in2="BackgroundImageFix" result="shape"/>
<feColorMatrix in="SourceAlpha" type="matrix" values="0 0 0 0 0 0 0 0 0 0 0 0 0 0 0 0 0 0 127 0" result="hardAlpha"/>
<feOffset dx="0.25" dy="-0.25"/>
<feGaussianBlur stdDeviation="0.2"/>
<feComposite in2="hardAlpha" operator="arithmetic" k2="-1" k3="1"/>
<feColorMatrix type="matrix" values="0 0 0 0 0.992157 0 0 0 0 0.658824 0 0 0 0 0.0705882 0 0 0 1 0"/>
<feBlend mode="normal" in2="shape" result="effect1_innerShadow_2295_3151"/>
<feColorMatrix in="SourceAlpha" type="matrix" values="0 0 0 0 0 0 0 0 0 0 0 0 0 0 0 0 0 0 127 0" result="hardAlpha"/>
<feOffset dx="-0.25" dy="0.25"/>
<feGaussianBlur stdDeviation="0.2"/>
<feComposite in2="hardAlpha" operator="arithmetic" k2="-1" k3="1"/>
<feColorMatrix type="matrix" values="0 0 0 0 1 0 0 0 0 0.8 0 0 0 0 0.290196 0 0 0 1 0"/>
<feBlend mode="normal" in2="effect1_innerShadow_2295_3151" result="effect2_innerShadow_2295_3151"/>
</filter>
<linearGradient id="paint0_linear_2295_3151" x1="7.22656" y1="13.6562" x2="14.5703" y2="4.39844" gradientUnits="userSpaceOnUse">
<stop stop-color="#F19D48"/>
<stop offset="1" stop-color="#E89A44"/>
</linearGradient>
<linearGradient id="paint1_linear_2295_3151" x1="10" y1="1.52734" x2="10" y2="18.9883" gradientUnits="userSpaceOnUse">
<stop stop-color="#FFC444"/>
<stop offset="1" stop-color="#FFC24B"/>
</linearGradient>
<linearGradient id="paint2_linear_2295_3151" x1="12.0717" y1="5.8076" x2="11.8178" y2="6.19286" gradientUnits="userSpaceOnUse">
<stop offset="0.458872" stop-color="#FFCA3F"/>
<stop offset="1" stop-color="#FFCA3F" stop-opacity="0"/>
</linearGradient>
<linearGradient id="paint3_linear_2295_3151" x1="6.58344" y1="9.41257" x2="7.07172" y2="9.41257" gradientUnits="userSpaceOnUse">
<stop offset="0.166667" stop-color="#FFB33B"/>
<stop offset="1" stop-color="#FFC047"/>
</linearGradient>
<linearGradient id="paint4_linear_2295_3151" x1="7.49805" y1="10.4298" x2="7.25726" y2="10.4298" gradientUnits="userSpaceOnUse">
<stop offset="0.0671736" stop-color="#FFC34C"/>
<stop offset="1" stop-color="#FFC34C" stop-opacity="0"/>
</linearGradient>
<linearGradient id="paint5_linear_2295_3151" x1="8.59515" y1="9.41257" x2="9.08344" y2="9.41257" gradientUnits="userSpaceOnUse">
<stop offset="0.166667" stop-color="#FFB33B"/>
<stop offset="1" stop-color="#FFC047"/>
</linearGradient>
<linearGradient id="paint6_linear_2295_3151" x1="9.50977" y1="10.4298" x2="9.26898" y2="10.4298" gradientUnits="userSpaceOnUse">
<stop offset="0.0671736" stop-color="#FFC34C"/>
<stop offset="1" stop-color="#FFC34C" stop-opacity="0"/>
</linearGradient>
<linearGradient id="paint7_linear_2295_3151" x1="10.6069" y1="9.41257" x2="11.0952" y2="9.41257" gradientUnits="userSpaceOnUse">
<stop offset="0.166667" stop-color="#FFB33B"/>
<stop offset="1" stop-color="#FFC047"/>
</linearGradient>
<linearGradient id="paint8_linear_2295_3151" x1="11.5215" y1="10.4298" x2="11.2807" y2="10.4298" gradientUnits="userSpaceOnUse">
<stop offset="0.0671736" stop-color="#FFC34C"/>
<stop offset="1" stop-color="#FFC34C" stop-opacity="0"/>
</linearGradient>
<linearGradient id="paint9_linear_2295_3151" x1="12.6186" y1="9.41257" x2="13.1069" y2="9.41257" gradientUnits="userSpaceOnUse">
<stop offset="0.166667" stop-color="#FFB33B"/>
<stop offset="1" stop-color="#FFC047"/>
</linearGradient>
<linearGradient id="paint10_linear_2295_3151" x1="13.5332" y1="10.4298" x2="13.2924" y2="10.4298" gradientUnits="userSpaceOnUse">
<stop offset="0.0671736" stop-color="#FFC34C"/>
<stop offset="1" stop-color="#FFC34C" stop-opacity="0"/>
</linearGradient>
</defs>
</svg>
